<?xml version="1.0" encoding="UTF-8" standalone="no"?>
<svg
   xmlns:dc="http://purl.org/dc/elements/1.1/"
   xmlns:cc="http://creativecommons.org/ns#"
   xmlns:rdf="http://www.w3.org/1999/02/22-rdf-syntax-ns#"
   xmlns:svg="http://www.w3.org/2000/svg"
   xmlns="http://www.w3.org/2000/svg"
   xmlns:sodipodi="http://sodipodi.sourceforge.net/DTD/sodipodi-0.dtd"
   xmlns:inkscape="http://www.inkscape.org/namespaces/inkscape"
   width="1.73in"
   height="2in"
   viewBox="0 0 43.941999 50.800002"
   version="1.1"
   id="svg8"
   sodipodi:docname="xmart-sticker.svg"
   inkscape:version="1.0.1 (c497b03c, 2020-09-10)"
   inkscape:export-filename="/Users/caldwellst/Documents/repos/packages/xmart4/inst/sticker/xmart-sticker.png"
   inkscape:export-xdpi="1200"
   inkscape:export-ydpi="1200">
  <defs
     id="defs2" />
  <sodipodi:namedview
     id="base"
     pagecolor="#ffffff"
     bordercolor="#666666"
     borderopacity="1.0"
     inkscape:pageopacity="0.0"
     inkscape:pageshadow="2"
     inkscape:zoom="2.6443489"
     inkscape:cx="121.83125"
     inkscape:cy="107.85187"
     inkscape:document-units="mm"
     inkscape:current-layer="layer1"
     inkscape:document-rotation="0"
     showgrid="false"
     fit-margin-top="0"
     fit-margin-left="0"
     fit-margin-right="0"
     fit-margin-bottom="0"
     inkscape:window-width="1792"
     inkscape:window-height="971"
     inkscape:window-x="0"
     inkscape:window-y="25"
     inkscape:window-maximized="1"
     units="in" />
  <metadata
     id="metadata5">
    <rdf:RDF>
      <cc:Work
         rdf:about="">
        <dc:format>image/svg+xml</dc:format>
        <dc:type
           rdf:resource="http://purl.org/dc/dcmitype/StillImage" />
        <dc:title></dc:title>
      </cc:Work>
    </rdf:RDF>
  </metadata>
  <g
     inkscape:label="Layer 1"
     inkscape:groupmode="layer"
     id="layer1"
     transform="translate(0.26458713,-0.30238709)">
    <path
       sodipodi:type="star"
       style="fill:#66a9d0;fill-opacity:1;stroke:#3e69a0;stroke-width:2;stroke-miterlimit:4;stroke-dasharray:none;stroke-opacity:1"
       id="path106"
       sodipodi:sides="6"
       sodipodi:cx="21.706413"
       sodipodi:cy="25.702387"
       sodipodi:r1="24.17371"
       sodipodi:r2="21.948471"
       sodipodi:arg1="0.52751869"
       sodipodi:arg2="1.0511175"
       inkscape:flatsided="true"
       inkscape:rounded="0"
       inkscape:randomized="0"
       d="M 42.59392,37.871212 21.611655,49.875911 0.72414794,37.707086 0.81890657,13.533561 21.801172,1.5288627 42.688679,13.697688 Z" />
    <g
       id="g2593"
       transform="translate(0.316428,-0.20727685)">
      <g
         id="g1857"
         transform="matrix(0.63997838,0,0,-0.63997838,21.43692,42.130379)">
        <path
           d="M 0,0 -21.861,12.331 V 37.068 L 0,24.737 Z"
           style="fill:none;stroke:#0f2832;stroke-width:0.976;stroke-linecap:round;stroke-linejoin:round;stroke-miterlimit:10;stroke-dasharray:none;stroke-opacity:1"
           id="path1859" />
      </g>
      <g
         id="g1861"
         transform="matrix(0.63997838,0,0,-0.63997838,21.441273,42.132231)">
        <path
           d="M 0,0 21.86,12.33 V 37.067 L 0,24.737 Z"
           style="fill:none;stroke:#0f2832;stroke-width:0.976;stroke-linecap:round;stroke-linejoin:round;stroke-miterlimit:10;stroke-dasharray:none;stroke-opacity:1"
           id="path1863" />
      </g>
      <g
         id="g1865"
         transform="matrix(0.63997838,0,0,-0.63997838,21.441273,26.301219)">
        <path
           d="M 0,0 21.86,12.331 -0.007,24.673 -21.868,12.342 Z"
           style="fill:none;stroke:#0f2832;stroke-width:0.976;stroke-linecap:round;stroke-linejoin:round;stroke-miterlimit:10;stroke-dasharray:none;stroke-opacity:1"
           id="path1867" />
      </g>
      <path
         d="m 17.809461,9.3098913 h -6.751133 v 8.9159557 h 6.751133 z"
         style="fill:#66a9d0;fill-opacity:1;fill-rule:nonzero;stroke:none;stroke-width:0.540109"
         id="path1869" />
      <path
         d="m 31.763549,10.294654 h -6.637215 v 8.115507 h 6.637215 z"
         style="fill:#66a9d0;fill-opacity:1;fill-rule:nonzero;stroke:none;stroke-width:0.515294"
         id="path1871" />
      <g
         id="g1873"
         transform="matrix(0.61174584,0,0,-0.61174584,4.5538212,22.133868)"
         style="fill:#66a9d0;fill-opacity:1">
        <path
           d="m 0,0 -4.393,-7.489 16.872,-9.896 4.392,7.489 z"
           style="fill:#66a9d0;fill-opacity:1;fill-rule:nonzero;stroke:none"
           id="path1875" />
      </g>
      <g
         id="g1877"
         transform="matrix(0.63997838,0,0,-0.59019095,17.787383,35.220615)"
         style="fill:#66a9d0;fill-opacity:1">
        <path
           d="m 0,0 -10.589,0.087 -0.099,-11.971 10.589,-0.087 z"
           style="fill:#66a9d0;fill-opacity:1;fill-rule:nonzero;stroke:none"
           id="path1879" />
      </g>
      <g
         id="g1881"
         transform="matrix(0.63997838,0,0,-0.63997838,31.682207,33.320627)"
         style="fill:#66a9d0;fill-opacity:1">
        <path
           d="m 0,0 -10.186,0.084 -0.119,-14.358 10.186,-0.084 z"
           style="fill:#66a9d0;fill-opacity:1;fill-rule:nonzero;stroke:none"
           id="path1883" />
      </g>
      <g
         id="g1885"
         transform="matrix(0.43612689,0,0,-0.43612689,3.1421031,25.59716)"
         style="fill:#66a9d0;fill-opacity:1">
        <path
           d="m 0,0 4.27,-7.56 17.031,9.619 -4.27,7.56 z"
           style="fill:#66a9d0;fill-opacity:1;fill-rule:nonzero;stroke:none"
           id="path1887" />
      </g>
      <g
         id="g1889"
         transform="matrix(0.63997838,0,0,-0.63997838,38.56012,31.239799)"
         style="fill:#66a9d0;fill-opacity:1">
        <path
           d="M 0,0 4.393,7.489 -6.593,13.933 -10.985,6.444 Z"
           style="fill:#66a9d0;fill-opacity:1;fill-rule:nonzero;stroke:none"
           id="path1891" />
      </g>
      <g
         id="g1893"
         transform="matrix(0.49436361,0,0,-0.49436361,40.735702,27.21595)"
         style="fill:#66a9d0;fill-opacity:1">
        <path
           d="m 0,0 -4.27,7.56 -17.031,-9.62 4.27,-7.559 z"
           style="fill:#66a9d0;fill-opacity:1;fill-rule:nonzero;stroke:none"
           id="path1895" />
      </g>
      <g
         id="g1897"
         transform="matrix(0.63997838,0,0,-0.63997838,21.318527,10.923622)">
        <path
           d="M 0,0 V -23.453"
           style="fill:none;stroke:#0f2832;stroke-width:0.976;stroke-linecap:round;stroke-linejoin:round;stroke-miterlimit:10;stroke-dasharray:none;stroke-opacity:1"
           id="path1899" />
      </g>
      <g
         id="g1901"
         transform="matrix(0.63997838,0,0,-0.63997838,21.563827,26.264034)">
        <path
           d="M 0,0 -22.052,-12.465"
           style="fill:none;stroke:#0f2832;stroke-width:0.976;stroke-linecap:round;stroke-linejoin:round;stroke-miterlimit:10;stroke-dasharray:none;stroke-opacity:1"
           id="path1903" />
      </g>
      <g
         id="g1905"
         transform="matrix(0.63997838,0,0,-0.63997838,21.205699,26.283678)">
        <path
           d="M 0,0 21.846,-12.434"
           style="fill:none;stroke:#0f2832;stroke-width:0.976;stroke-linecap:round;stroke-linejoin:round;stroke-miterlimit:10;stroke-dasharray:none;stroke-opacity:1"
           id="path1907" />
      </g>
      <g
         id="g1909"
         transform="matrix(0.63997838,0,0,-0.63997838,30.195985,31.42757)">
        <path
           d="M 0,0 -13.82,7.795 V 23.434 L 0,15.639 Z"
           style="fill:#ffffff;fill-opacity:1;fill-rule:nonzero;stroke:none"
           id="path1911" />
      </g>
      <g
         id="g1913"
         transform="matrix(0.63997838,0,0,-0.63997838,30.195985,31.42757)">
        <path
           d="M 0,0 -13.82,7.795 V 23.434 L 0,15.639 Z"
           style="fill:none;stroke:#162c45;stroke-width:1.302;stroke-linecap:round;stroke-linejoin:round;stroke-miterlimit:10;stroke-dasharray:none;stroke-opacity:1"
           id="path1915" />
      </g>
      <g
         id="g1917"
         transform="matrix(0.63997838,0,0,-0.63997838,25.982112,33.840607)">
        <path
           d="M 0,0 -13.82,7.795 V 23.434 L 0,15.639 Z"
           style="fill:#ffffff;fill-opacity:1;fill-rule:nonzero;stroke:none"
           id="path1919" />
      </g>
      <g
         id="g1921"
         transform="matrix(0.63997838,0,0,-0.63997838,25.982112,33.840607)">
        <path
           d="M 0,0 -13.82,7.795 V 23.434 L 0,15.639 Z"
           style="fill:none;stroke:#162c45;stroke-width:1.302;stroke-linecap:round;stroke-linejoin:round;stroke-miterlimit:10;stroke-dasharray:none;stroke-opacity:1"
           id="path1923" />
      </g>
      <g
         id="g1925"
         transform="matrix(0.63997838,0,0,-0.63997838,21.485368,36.294926)">
        <path
           d="M 0,0 -13.82,7.795 V 23.434 L 0,15.639 Z"
           style="fill:#ffffff;fill-opacity:1;fill-rule:nonzero;stroke:none"
           id="path1927" />
      </g>
      <g
         id="g1929"
         transform="matrix(0.63997838,0,0,-0.63997838,21.485368,36.294926)">
        <path
           d="M 0,0 -13.82,7.795 V 23.434 L 0,15.639 Z"
           style="fill:none;stroke:#162c45;stroke-width:1.302;stroke-linecap:round;stroke-linejoin:round;stroke-miterlimit:10;stroke-dasharray:none;stroke-opacity:1"
           id="path1931" />
      </g>
      <g
         id="g1933"
         transform="matrix(0.63997838,0,0,-0.63997838,18.924176,28.172388)">
        <path
           d="M 0,0 -7.064,3.869 V 5.483 L 0,1.614 Z"
           style="fill:#3871c1;fill-opacity:1;fill-rule:nonzero;stroke:none"
           id="path1935" />
      </g>
      <g
         id="g1937"
         transform="matrix(0.63997838,0,0,-0.63997838,27.929823,23.187208)">
        <path
           d="M 0,0 -7.064,3.869 V 5.483 L 0,1.614 Z"
           style="fill:#3871c1;fill-opacity:1;fill-rule:nonzero;stroke:none"
           id="path1939" />
      </g>
      <g
         id="g1941"
         transform="matrix(0.63997838,0,0,-0.63997838,21.925995,24.634714)">
        <path
           d="M 0,0 -4.383,2.445 V 4.06 L 0,1.615 Z"
           style="fill:#3871c1;fill-opacity:1;fill-rule:nonzero;stroke:none"
           id="path1943" />
      </g>
      <g
         id="g1945"
         transform="matrix(0.63997838,0,0,-0.63997838,17.744884,32.030683)">
        <path
           d="M 0,0 -5.221,2.864 V 4.479 L 0,1.615 Z"
           style="fill:#3871c1;fill-opacity:1;fill-rule:nonzero;stroke:none"
           id="path1947" />
      </g>
      <g
         id="g1949"
         transform="matrix(0.63997838,0,0,-0.63997838,24.270297,30.597648)">
        <path
           d="M 0,0 -3.37,1.938 V 3.553 L 0,1.614 Z"
           style="fill:#3871c1;fill-opacity:1;fill-rule:nonzero;stroke:none"
           id="path1951" />
      </g>
      <g
         id="g1953"
         transform="matrix(0.63997838,0,0,-0.63997838,23.212159,27.808622)">
        <path
           d="M 0,0 -1.849,1.069 V 2.684 L 0,1.615 Z"
           style="fill:#3871c1;fill-opacity:1;fill-rule:nonzero;stroke:none"
           id="path1955" />
      </g>
      <g
         id="g1957"
         transform="matrix(0.63997838,0,0,-0.63997838,28.355475,25.812465)">
        <path
           d="M 0,0 -2.79,1.576 V 3.19 L 0,1.615 Z"
           style="fill:#3871c1;fill-opacity:1;fill-rule:nonzero;stroke:none"
           id="path1959" />
      </g>
      <g
         id="g1961"
         transform="matrix(0.63997838,0,0,-0.63997838,27.815458,27.984295)">
        <path
           d="M 0,0 -1.946,1.112 V 2.727 L 0,1.615 Z"
           style="fill:#3871c1;fill-opacity:1;fill-rule:nonzero;stroke:none"
           id="path1963" />
      </g>
      <g
         id="g1965"
         transform="matrix(0.63997838,0,0,-0.63997838,16.039598,28.893639)">
        <path
           d="M 0,0 -2.557,1.365 V 2.979 L 0,1.614 Z"
           style="fill:#3871c1;fill-opacity:1;fill-rule:nonzero;stroke:none"
           id="path1967" />
      </g>
    </g>
    <text
       xml:space="preserve"
       style="font-style:normal;font-weight:normal;font-size:5.64444px;line-height:1.25;font-family:sans-serif;fill:#ffffff;fill-opacity:0;stroke:#828282;stroke-width:0;stroke-miterlimit:4;stroke-dasharray:none;stroke-opacity:1"
       x="-1.6900023"
       y="51.835857"
       id="text953"
       transform="rotate(-29.489921)"><tspan
         sodipodi:role="line"
         id="tspan951"
         x="-1.6900023"
         y="51.835857"
         style="font-style:normal;font-variant:normal;font-weight:bold;font-stretch:normal;font-size:4.93889px;font-family:Raleway;-inkscape-font-specification:Raleway;fill:#ffffff;fill-opacity:1;stroke:#828282;stroke-width:0;stroke-miterlimit:4;stroke-dasharray:none;stroke-opacity:1">xmart4</tspan></text>
  </g>
</svg>
